<svg width="686" height="91" viewBox="0 0 686 91" fill="none" xmlns="http://www.w3.org/2000/svg">
<mask id="mask0" mask-type="alpha" maskUnits="userSpaceOnUse" x="0" y="31" width="160" height="60">
<rect y="31" width="160" height="60" fill="#FFAA00"/>
</mask>
<g mask="url(#mask0)">
<rect y="31" width="160" height="60" fill="#0000E6"/>
<circle cy="31" r="112" fill="#661AFF"/>
<circle cx="0.5" cy="31.5" r="40.5" fill="#F5008F"/>
</g>
<path d="M18.6543 6.15918V8.58496C17.4707 7.59473 16.2461 7.09961 14.9805 7.09961C13.5859 7.09961 12.4111 7.60059 11.4561 8.60254C10.4951 9.59863 10.0146 10.8174 10.0146 12.2588C10.0146 13.6826 10.4951 14.8838 11.4561 15.8623C12.417 16.8408 13.5947 17.3301 14.9893 17.3301C15.71 17.3301 16.3223 17.2129 16.8262 16.9785C17.1074 16.8613 17.3975 16.7031 17.6963 16.5039C18.001 16.3047 18.3203 16.0645 18.6543 15.7832V18.2529C17.4824 18.915 16.252 19.2461 14.9629 19.2461C13.0234 19.2461 11.3682 18.5693 9.99707 17.2158C8.63184 15.8506 7.94922 14.2041 7.94922 12.2764C7.94922 10.5479 8.52051 9.00684 9.66309 7.65332C11.0693 5.99512 12.8887 5.16602 15.1211 5.16602C16.3398 5.16602 17.5176 5.49707 18.6543 6.15918ZM24.499 7.3457H22.1523L23.2773 5.42969H26.5469V19H24.499V7.3457Z" fill="#F5008F"/>
<path d="M78.6543 6.15918V8.58496C77.4707 7.59473 76.2461 7.09961 74.9805 7.09961C73.5859 7.09961 72.4111 7.60059 71.4561 8.60254C70.4951 9.59863 70.0146 10.8174 70.0146 12.2588C70.0146 13.6826 70.4951 14.8838 71.4561 15.8623C72.417 16.8408 73.5947 17.3301 74.9893 17.3301C75.71 17.3301 76.3223 17.2129 76.8262 16.9785C77.1074 16.8613 77.3975 16.7031 77.6963 16.5039C78.001 16.3047 78.3203 16.0645 78.6543 15.7832V18.2529C77.4824 18.915 76.252 19.2461 74.9629 19.2461C73.0234 19.2461 71.3682 18.5693 69.9971 17.2158C68.6318 15.8506 67.9492 14.2041 67.9492 12.2764C67.9492 10.5479 68.5205 9.00684 69.6631 7.65332C71.0693 5.99512 72.8887 5.16602 75.1211 5.16602C76.3398 5.16602 77.5176 5.49707 78.6543 6.15918ZM84.1299 17.0752H89.1836V19H80.0693L84.7803 13.2959C85.2432 12.7275 85.6299 12.2354 85.9404 11.8193C86.2568 11.4033 86.4971 11.0547 86.6611 10.7734C86.9951 10.2227 87.1621 9.72754 87.1621 9.28809C87.1621 8.65527 86.9395 8.125 86.4941 7.69727C86.0488 7.26953 85.498 7.05566 84.8418 7.05566C83.4707 7.05566 82.6855 7.86719 82.4863 9.49023H80.4473C80.7754 6.63086 82.2197 5.20117 84.7803 5.20117C86.0166 5.20117 87.0537 5.59375 87.8916 6.37891C88.7354 7.16406 89.1572 8.13672 89.1572 9.29688C89.1572 10.0352 88.9609 10.7588 88.5684 11.4678C88.3691 11.8369 88.0762 12.2764 87.6895 12.7861C87.3086 13.29 86.8252 13.8877 86.2393 14.5791L84.1299 17.0752Z" fill="#6619FF"/>
<path d="M138.654 6.15918V8.58496C137.471 7.59473 136.246 7.09961 134.98 7.09961C133.586 7.09961 132.411 7.60059 131.456 8.60254C130.495 9.59863 130.015 10.8174 130.015 12.2588C130.015 13.6826 130.495 14.8838 131.456 15.8623C132.417 16.8408 133.595 17.3301 134.989 17.3301C135.71 17.3301 136.322 17.2129 136.826 16.9785C137.107 16.8613 137.397 16.7031 137.696 16.5039C138.001 16.3047 138.32 16.0645 138.654 15.7832V18.2529C137.482 18.915 136.252 19.2461 134.963 19.2461C133.023 19.2461 131.368 18.5693 129.997 17.2158C128.632 15.8506 127.949 14.2041 127.949 12.2764C127.949 10.5479 128.521 9.00684 129.663 7.65332C131.069 5.99512 132.889 5.16602 135.121 5.16602C136.34 5.16602 137.518 5.49707 138.654 6.15918ZM144.279 12.6982V10.9492C145.146 10.9492 145.729 10.8525 146.028 10.6592C146.562 10.3193 146.828 9.77441 146.828 9.02441C146.828 8.44434 146.635 7.97266 146.248 7.60938C145.867 7.24023 145.372 7.05566 144.763 7.05566C144.194 7.05566 143.755 7.19336 143.444 7.46875C143.146 7.75 142.923 8.22461 142.776 8.89258H140.737C140.948 7.61523 141.382 6.68066 142.038 6.08887C142.694 5.49121 143.611 5.19238 144.789 5.19238C145.979 5.19238 146.948 5.54395 147.698 6.24707C148.448 6.94434 148.823 7.84375 148.823 8.94531C148.823 10.1875 148.331 11.1543 147.347 11.8457C148.472 12.5078 149.034 13.583 149.034 15.0713C149.034 16.29 148.624 17.2861 147.804 18.0596C146.983 18.833 145.932 19.2197 144.648 19.2197C143.014 19.2197 141.801 18.6191 141.01 17.418C140.682 16.9141 140.474 16.2168 140.386 15.3262H142.363C142.469 15.9824 142.724 16.4863 143.128 16.8379C143.538 17.1836 144.071 17.3564 144.728 17.3564C145.39 17.3564 145.938 17.1367 146.371 16.6973C146.805 16.2461 147.021 15.6748 147.021 14.9834C147.021 14.0693 146.696 13.4189 146.046 13.0322C145.665 12.8096 145.076 12.6982 144.279 12.6982Z" fill="#0000E5"/>
<mask id="mask1" mask-type="alpha" maskUnits="userSpaceOnUse" x="263" y="31" width="160" height="60">
<rect x="263" y="31" width="160" height="60" fill="#FFAA00"/>
</mask>
<g mask="url(#mask1)">
<rect x="263" y="31" width="160" height="60" fill="#6619FF"/>
<circle cx="263" cy="31" r="112" fill="#F5008F"/>
<circle cx="263.5" cy="31.5" r="40.5" fill="#FF6422"/>
</g>
<path d="M281.654 6.15918V8.58496C280.471 7.59473 279.246 7.09961 277.98 7.09961C276.586 7.09961 275.411 7.60059 274.456 8.60254C273.495 9.59863 273.015 10.8174 273.015 12.2588C273.015 13.6826 273.495 14.8838 274.456 15.8623C275.417 16.8408 276.595 17.3301 277.989 17.3301C278.71 17.3301 279.322 17.2129 279.826 16.9785C280.107 16.8613 280.397 16.7031 280.696 16.5039C281.001 16.3047 281.32 16.0645 281.654 15.7832V18.2529C280.482 18.915 279.252 19.2461 277.963 19.2461C276.023 19.2461 274.368 18.5693 272.997 17.2158C271.632 15.8506 270.949 14.2041 270.949 12.2764C270.949 10.5479 271.521 9.00684 272.663 7.65332C274.069 5.99512 275.889 5.16602 278.121 5.16602C279.34 5.16602 280.518 5.49707 281.654 6.15918ZM287.499 7.3457H285.152L286.277 5.42969H289.547V19H287.499V7.3457Z" fill="#FF6422"/>
<path d="M341.654 6.15918V8.58496C340.471 7.59473 339.246 7.09961 337.98 7.09961C336.586 7.09961 335.411 7.60059 334.456 8.60254C333.495 9.59863 333.015 10.8174 333.015 12.2588C333.015 13.6826 333.495 14.8838 334.456 15.8623C335.417 16.8408 336.595 17.3301 337.989 17.3301C338.71 17.3301 339.322 17.2129 339.826 16.9785C340.107 16.8613 340.397 16.7031 340.696 16.5039C341.001 16.3047 341.32 16.0645 341.654 15.7832V18.2529C340.482 18.915 339.252 19.2461 337.963 19.2461C336.023 19.2461 334.368 18.5693 332.997 17.2158C331.632 15.8506 330.949 14.2041 330.949 12.2764C330.949 10.5479 331.521 9.00684 332.663 7.65332C334.069 5.99512 335.889 5.16602 338.121 5.16602C339.34 5.16602 340.518 5.49707 341.654 6.15918ZM347.13 17.0752H352.184V19H343.069L347.78 13.2959C348.243 12.7275 348.63 12.2354 348.94 11.8193C349.257 11.4033 349.497 11.0547 349.661 10.7734C349.995 10.2227 350.162 9.72754 350.162 9.28809C350.162 8.65527 349.939 8.125 349.494 7.69727C349.049 7.26953 348.498 7.05566 347.842 7.05566C346.471 7.05566 345.686 7.86719 345.486 9.49023H343.447C343.775 6.63086 345.22 5.20117 347.78 5.20117C349.017 5.20117 350.054 5.59375 350.892 6.37891C351.735 7.16406 352.157 8.13672 352.157 9.29688C352.157 10.0352 351.961 10.7588 351.568 11.4678C351.369 11.8369 351.076 12.2764 350.689 12.7861C350.309 13.29 349.825 13.8877 349.239 14.5791L347.13 17.0752Z" fill="#F5008F"/>
<path d="M401.654 6.15918V8.58496C400.471 7.59473 399.246 7.09961 397.98 7.09961C396.586 7.09961 395.411 7.60059 394.456 8.60254C393.495 9.59863 393.015 10.8174 393.015 12.2588C393.015 13.6826 393.495 14.8838 394.456 15.8623C395.417 16.8408 396.595 17.3301 397.989 17.3301C398.71 17.3301 399.322 17.2129 399.826 16.9785C400.107 16.8613 400.397 16.7031 400.696 16.5039C401.001 16.3047 401.32 16.0645 401.654 15.7832V18.2529C400.482 18.915 399.252 19.2461 397.963 19.2461C396.023 19.2461 394.368 18.5693 392.997 17.2158C391.632 15.8506 390.949 14.2041 390.949 12.2764C390.949 10.5479 391.521 9.00684 392.663 7.65332C394.069 5.99512 395.889 5.16602 398.121 5.16602C399.34 5.16602 400.518 5.49707 401.654 6.15918ZM407.279 12.6982V10.9492C408.146 10.9492 408.729 10.8525 409.028 10.6592C409.562 10.3193 409.828 9.77441 409.828 9.02441C409.828 8.44434 409.635 7.97266 409.248 7.60938C408.867 7.24023 408.372 7.05566 407.763 7.05566C407.194 7.05566 406.755 7.19336 406.444 7.46875C406.146 7.75 405.923 8.22461 405.776 8.89258H403.737C403.948 7.61523 404.382 6.68066 405.038 6.08887C405.694 5.49121 406.611 5.19238 407.789 5.19238C408.979 5.19238 409.948 5.54395 410.698 6.24707C411.448 6.94434 411.823 7.84375 411.823 8.94531C411.823 10.1875 411.331 11.1543 410.347 11.8457C411.472 12.5078 412.034 13.583 412.034 15.0713C412.034 16.29 411.624 17.2861 410.804 18.0596C409.983 18.833 408.932 19.2197 407.648 19.2197C406.014 19.2197 404.801 18.6191 404.01 17.418C403.682 16.9141 403.474 16.2168 403.386 15.3262H405.363C405.469 15.9824 405.724 16.4863 406.128 16.8379C406.538 17.1836 407.071 17.3564 407.728 17.3564C408.39 17.3564 408.938 17.1367 409.371 16.6973C409.805 16.2461 410.021 15.6748 410.021 14.9834C410.021 14.0693 409.696 13.4189 409.046 13.0322C408.665 12.8096 408.076 12.6982 407.279 12.6982Z" fill="#6619FF"/>
<path d="M233.354 61.3536C233.549 61.1583 233.549 60.8417 233.354 60.6464L230.172 57.4645C229.976 57.2692 229.66 57.2692 229.464 57.4645C229.269 57.6597 229.269 57.9763 229.464 58.1716L232.293 61L229.464 63.8284C229.269 64.0237 229.269 64.3403 229.464 64.5355C229.66 64.7308 229.976 64.7308 230.172 64.5355L233.354 61.3536ZM190 61.5H233V60.5H190V61.5Z" fill="black"/>
<mask id="mask2" mask-type="alpha" maskUnits="userSpaceOnUse" x="526" y="31" width="160" height="60">
<rect x="526" y="31" width="160" height="60" fill="#FFAA00"/>
</mask>
<g mask="url(#mask2)">
<rect x="526" y="31" width="160" height="60" fill="#F5008F"/>
<circle cx="526" cy="31" r="112" fill="#FF6422"/>
<circle cx="526.5" cy="31.5" r="40.5" fill="#FFB31A"/>
</g>
<path d="M544.654 6.15918V8.58496C543.471 7.59473 542.246 7.09961 540.98 7.09961C539.586 7.09961 538.411 7.60059 537.456 8.60254C536.495 9.59863 536.015 10.8174 536.015 12.2588C536.015 13.6826 536.495 14.8838 537.456 15.8623C538.417 16.8408 539.595 17.3301 540.989 17.3301C541.71 17.3301 542.322 17.2129 542.826 16.9785C543.107 16.8613 543.397 16.7031 543.696 16.5039C544.001 16.3047 544.32 16.0645 544.654 15.7832V18.2529C543.482 18.915 542.252 19.2461 540.963 19.2461C539.023 19.2461 537.368 18.5693 535.997 17.2158C534.632 15.8506 533.949 14.2041 533.949 12.2764C533.949 10.5479 534.521 9.00684 535.663 7.65332C537.069 5.99512 538.889 5.16602 541.121 5.16602C542.34 5.16602 543.518 5.49707 544.654 6.15918ZM550.499 7.3457H548.152L549.277 5.42969H552.547V19H550.499V7.3457Z" fill="#E89A00"/>
<path d="M604.654 6.15918V8.58496C603.471 7.59473 602.246 7.09961 600.98 7.09961C599.586 7.09961 598.411 7.60059 597.456 8.60254C596.495 9.59863 596.015 10.8174 596.015 12.2588C596.015 13.6826 596.495 14.8838 597.456 15.8623C598.417 16.8408 599.595 17.3301 600.989 17.3301C601.71 17.3301 602.322 17.2129 602.826 16.9785C603.107 16.8613 603.397 16.7031 603.696 16.5039C604.001 16.3047 604.32 16.0645 604.654 15.7832V18.2529C603.482 18.915 602.252 19.2461 600.963 19.2461C599.023 19.2461 597.368 18.5693 595.997 17.2158C594.632 15.8506 593.949 14.2041 593.949 12.2764C593.949 10.5479 594.521 9.00684 595.663 7.65332C597.069 5.99512 598.889 5.16602 601.121 5.16602C602.34 5.16602 603.518 5.49707 604.654 6.15918ZM610.13 17.0752H615.184V19H606.069L610.78 13.2959C611.243 12.7275 611.63 12.2354 611.94 11.8193C612.257 11.4033 612.497 11.0547 612.661 10.7734C612.995 10.2227 613.162 9.72754 613.162 9.28809C613.162 8.65527 612.939 8.125 612.494 7.69727C612.049 7.26953 611.498 7.05566 610.842 7.05566C609.471 7.05566 608.686 7.86719 608.486 9.49023H606.447C606.775 6.63086 608.22 5.20117 610.78 5.20117C612.017 5.20117 613.054 5.59375 613.892 6.37891C614.735 7.16406 615.157 8.13672 615.157 9.29688C615.157 10.0352 614.961 10.7588 614.568 11.4678C614.369 11.8369 614.076 12.2764 613.689 12.7861C613.309 13.29 612.825 13.8877 612.239 14.5791L610.13 17.0752Z" fill="#FF6422"/>
<path d="M664.654 6.15918V8.58496C663.471 7.59473 662.246 7.09961 660.98 7.09961C659.586 7.09961 658.411 7.60059 657.456 8.60254C656.495 9.59863 656.015 10.8174 656.015 12.2588C656.015 13.6826 656.495 14.8838 657.456 15.8623C658.417 16.8408 659.595 17.3301 660.989 17.3301C661.71 17.3301 662.322 17.2129 662.826 16.9785C663.107 16.8613 663.397 16.7031 663.696 16.5039C664.001 16.3047 664.32 16.0645 664.654 15.7832V18.2529C663.482 18.915 662.252 19.2461 660.963 19.2461C659.023 19.2461 657.368 18.5693 655.997 17.2158C654.632 15.8506 653.949 14.2041 653.949 12.2764C653.949 10.5479 654.521 9.00684 655.663 7.65332C657.069 5.99512 658.889 5.16602 661.121 5.16602C662.34 5.16602 663.518 5.49707 664.654 6.15918ZM670.279 12.6982V10.9492C671.146 10.9492 671.729 10.8525 672.028 10.6592C672.562 10.3193 672.828 9.77441 672.828 9.02441C672.828 8.44434 672.635 7.97266 672.248 7.60938C671.867 7.24023 671.372 7.05566 670.763 7.05566C670.194 7.05566 669.755 7.19336 669.444 7.46875C669.146 7.75 668.923 8.22461 668.776 8.89258H666.737C666.948 7.61523 667.382 6.68066 668.038 6.08887C668.694 5.49121 669.611 5.19238 670.789 5.19238C671.979 5.19238 672.948 5.54395 673.698 6.24707C674.448 6.94434 674.823 7.84375 674.823 8.94531C674.823 10.1875 674.331 11.1543 673.347 11.8457C674.472 12.5078 675.034 13.583 675.034 15.0713C675.034 16.29 674.624 17.2861 673.804 18.0596C672.983 18.833 671.932 19.2197 670.648 19.2197C669.014 19.2197 667.801 18.6191 667.01 17.418C666.682 16.9141 666.474 16.2168 666.386 15.3262H668.363C668.469 15.9824 668.724 16.4863 669.128 16.8379C669.538 17.1836 670.071 17.3564 670.728 17.3564C671.39 17.3564 671.938 17.1367 672.371 16.6973C672.805 16.2461 673.021 15.6748 673.021 14.9834C673.021 14.0693 672.696 13.4189 672.046 13.0322C671.665 12.8096 671.076 12.6982 670.279 12.6982Z" fill="#F5008F"/>
<path d="M496.354 61.3536C496.549 61.1583 496.549 60.8417 496.354 60.6464L493.172 57.4645C492.976 57.2692 492.66 57.2692 492.464 57.4645C492.269 57.6597 492.269 57.9763 492.464 58.1716L495.293 61L492.464 63.8284C492.269 64.0237 492.269 64.3403 492.464 64.5355C492.66 64.7308 492.976 64.7308 493.172 64.5355L496.354 61.3536ZM453 61.5H496V60.5H453V61.5Z" fill="black"/>
</svg>
