<svg width="161" height="443" viewBox="0 0 161 443" fill="none" xmlns="http://www.w3.org/2000/svg">
<mask id="mask0" mask-type="alpha" maskUnits="userSpaceOnUse" x="1" y="31" width="160" height="60">
<rect x="1" y="31" width="160" height="60" fill="#FFAA00"/>
</mask>
<g mask="url(#mask0)">
<rect x="1" y="31" width="160" height="60" fill="#0000E6"/>
<circle cx="1" cy="31" r="112" fill="#661AFF"/>
<circle cx="1.5" cy="31.5" r="40.5" fill="#F5008F"/>
</g>
<path d="M19.6543 6.15918V8.58496C18.4707 7.59473 17.2461 7.09961 15.9805 7.09961C14.5859 7.09961 13.4111 7.60059 12.4561 8.60254C11.4951 9.59863 11.0146 10.8174 11.0146 12.2588C11.0146 13.6826 11.4951 14.8838 12.4561 15.8623C13.417 16.8408 14.5947 17.3301 15.9893 17.3301C16.71 17.3301 17.3223 17.2129 17.8262 16.9785C18.1074 16.8613 18.3975 16.7031 18.6963 16.5039C19.001 16.3047 19.3203 16.0645 19.6543 15.7832V18.2529C18.4824 18.915 17.252 19.2461 15.9629 19.2461C14.0234 19.2461 12.3682 18.5693 10.9971 17.2158C9.63184 15.8506 8.94922 14.2041 8.94922 12.2764C8.94922 10.5479 9.52051 9.00684 10.6631 7.65332C12.0693 5.99512 13.8887 5.16602 16.1211 5.16602C17.3398 5.16602 18.5176 5.49707 19.6543 6.15918ZM25.499 7.3457H23.1523L24.2773 5.42969H27.5469V19H25.499V7.3457Z" fill="#F5008F"/>
<path d="M79.6543 6.15918V8.58496C78.4707 7.59473 77.2461 7.09961 75.9805 7.09961C74.5859 7.09961 73.4111 7.60059 72.4561 8.60254C71.4951 9.59863 71.0146 10.8174 71.0146 12.2588C71.0146 13.6826 71.4951 14.8838 72.4561 15.8623C73.417 16.8408 74.5947 17.3301 75.9893 17.3301C76.71 17.3301 77.3223 17.2129 77.8262 16.9785C78.1074 16.8613 78.3975 16.7031 78.6963 16.5039C79.001 16.3047 79.3203 16.0645 79.6543 15.7832V18.2529C78.4824 18.915 77.252 19.2461 75.9629 19.2461C74.0234 19.2461 72.3682 18.5693 70.9971 17.2158C69.6318 15.8506 68.9492 14.2041 68.9492 12.2764C68.9492 10.5479 69.5205 9.00684 70.6631 7.65332C72.0693 5.99512 73.8887 5.16602 76.1211 5.16602C77.3398 5.16602 78.5176 5.49707 79.6543 6.15918ZM85.1299 17.0752H90.1836V19H81.0693L85.7803 13.2959C86.2432 12.7275 86.6299 12.2354 86.9404 11.8193C87.2568 11.4033 87.4971 11.0547 87.6611 10.7734C87.9951 10.2227 88.1621 9.72754 88.1621 9.28809C88.1621 8.65527 87.9395 8.125 87.4941 7.69727C87.0488 7.26953 86.498 7.05566 85.8418 7.05566C84.4707 7.05566 83.6855 7.86719 83.4863 9.49023H81.4473C81.7754 6.63086 83.2197 5.20117 85.7803 5.20117C87.0166 5.20117 88.0537 5.59375 88.8916 6.37891C89.7354 7.16406 90.1572 8.13672 90.1572 9.29688C90.1572 10.0352 89.9609 10.7588 89.5684 11.4678C89.3691 11.8369 89.0762 12.2764 88.6895 12.7861C88.3086 13.29 87.8252 13.8877 87.2393 14.5791L85.1299 17.0752Z" fill="#6619FF"/>
<path d="M139.654 6.15918V8.58496C138.471 7.59473 137.246 7.09961 135.98 7.09961C134.586 7.09961 133.411 7.60059 132.456 8.60254C131.495 9.59863 131.015 10.8174 131.015 12.2588C131.015 13.6826 131.495 14.8838 132.456 15.8623C133.417 16.8408 134.595 17.3301 135.989 17.3301C136.71 17.3301 137.322 17.2129 137.826 16.9785C138.107 16.8613 138.397 16.7031 138.696 16.5039C139.001 16.3047 139.32 16.0645 139.654 15.7832V18.2529C138.482 18.915 137.252 19.2461 135.963 19.2461C134.023 19.2461 132.368 18.5693 130.997 17.2158C129.632 15.8506 128.949 14.2041 128.949 12.2764C128.949 10.5479 129.521 9.00684 130.663 7.65332C132.069 5.99512 133.889 5.16602 136.121 5.16602C137.34 5.16602 138.518 5.49707 139.654 6.15918ZM145.279 12.6982V10.9492C146.146 10.9492 146.729 10.8525 147.028 10.6592C147.562 10.3193 147.828 9.77441 147.828 9.02441C147.828 8.44434 147.635 7.97266 147.248 7.60938C146.867 7.24023 146.372 7.05566 145.763 7.05566C145.194 7.05566 144.755 7.19336 144.444 7.46875C144.146 7.75 143.923 8.22461 143.776 8.89258H141.737C141.948 7.61523 142.382 6.68066 143.038 6.08887C143.694 5.49121 144.611 5.19238 145.789 5.19238C146.979 5.19238 147.948 5.54395 148.698 6.24707C149.448 6.94434 149.823 7.84375 149.823 8.94531C149.823 10.1875 149.331 11.1543 148.347 11.8457C149.472 12.5078 150.034 13.583 150.034 15.0713C150.034 16.29 149.624 17.2861 148.804 18.0596C147.983 18.833 146.932 19.2197 145.648 19.2197C144.014 19.2197 142.801 18.6191 142.01 17.418C141.682 16.9141 141.474 16.2168 141.386 15.3262H143.363C143.469 15.9824 143.724 16.4863 144.128 16.8379C144.538 17.1836 145.071 17.3564 145.728 17.3564C146.39 17.3564 146.938 17.1367 147.371 16.6973C147.805 16.2461 148.021 15.6748 148.021 14.9834C148.021 14.0693 147.696 13.4189 147.046 13.0322C146.665 12.8096 146.076 12.6982 145.279 12.6982Z" fill="#0000E5"/>
<mask id="mask1" mask-type="alpha" maskUnits="userSpaceOnUse" x="0" y="207" width="160" height="60">
<rect y="207" width="160" height="60" fill="#FFAA00"/>
</mask>
<g mask="url(#mask1)">
<rect y="207" width="160" height="60" fill="#6619FF"/>
<circle cy="207" r="112" fill="#F5008F"/>
<circle cx="0.5" cy="207.5" r="40.5" fill="#FF6422"/>
</g>
<path d="M18.6543 182.159V184.585C17.4707 183.595 16.2461 183.1 14.9805 183.1C13.5859 183.1 12.4111 183.601 11.4561 184.603C10.4951 185.599 10.0146 186.817 10.0146 188.259C10.0146 189.683 10.4951 190.884 11.4561 191.862C12.417 192.841 13.5947 193.33 14.9893 193.33C15.71 193.33 16.3223 193.213 16.8262 192.979C17.1074 192.861 17.3975 192.703 17.6963 192.504C18.001 192.305 18.3203 192.064 18.6543 191.783V194.253C17.4824 194.915 16.252 195.246 14.9629 195.246C13.0234 195.246 11.3682 194.569 9.99707 193.216C8.63184 191.851 7.94922 190.204 7.94922 188.276C7.94922 186.548 8.52051 185.007 9.66309 183.653C11.0693 181.995 12.8887 181.166 15.1211 181.166C16.3398 181.166 17.5176 181.497 18.6543 182.159ZM24.499 183.346H22.1523L23.2773 181.43H26.5469V195H24.499V183.346Z" fill="#FF6422"/>
<path d="M78.6543 182.159V184.585C77.4707 183.595 76.2461 183.1 74.9805 183.1C73.5859 183.1 72.4111 183.601 71.4561 184.603C70.4951 185.599 70.0146 186.817 70.0146 188.259C70.0146 189.683 70.4951 190.884 71.4561 191.862C72.417 192.841 73.5947 193.33 74.9893 193.33C75.71 193.33 76.3223 193.213 76.8262 192.979C77.1074 192.861 77.3975 192.703 77.6963 192.504C78.001 192.305 78.3203 192.064 78.6543 191.783V194.253C77.4824 194.915 76.252 195.246 74.9629 195.246C73.0234 195.246 71.3682 194.569 69.9971 193.216C68.6318 191.851 67.9492 190.204 67.9492 188.276C67.9492 186.548 68.5205 185.007 69.6631 183.653C71.0693 181.995 72.8887 181.166 75.1211 181.166C76.3398 181.166 77.5176 181.497 78.6543 182.159ZM84.1299 193.075H89.1836V195H80.0693L84.7803 189.296C85.2432 188.728 85.6299 188.235 85.9404 187.819C86.2568 187.403 86.4971 187.055 86.6611 186.773C86.9951 186.223 87.1621 185.728 87.1621 185.288C87.1621 184.655 86.9395 184.125 86.4941 183.697C86.0488 183.27 85.498 183.056 84.8418 183.056C83.4707 183.056 82.6855 183.867 82.4863 185.49H80.4473C80.7754 182.631 82.2197 181.201 84.7803 181.201C86.0166 181.201 87.0537 181.594 87.8916 182.379C88.7354 183.164 89.1572 184.137 89.1572 185.297C89.1572 186.035 88.9609 186.759 88.5684 187.468C88.3691 187.837 88.0762 188.276 87.6895 188.786C87.3086 189.29 86.8252 189.888 86.2393 190.579L84.1299 193.075Z" fill="#F5008F"/>
<path d="M138.654 182.159V184.585C137.471 183.595 136.246 183.1 134.98 183.1C133.586 183.1 132.411 183.601 131.456 184.603C130.495 185.599 130.015 186.817 130.015 188.259C130.015 189.683 130.495 190.884 131.456 191.862C132.417 192.841 133.595 193.33 134.989 193.33C135.71 193.33 136.322 193.213 136.826 192.979C137.107 192.861 137.397 192.703 137.696 192.504C138.001 192.305 138.32 192.064 138.654 191.783V194.253C137.482 194.915 136.252 195.246 134.963 195.246C133.023 195.246 131.368 194.569 129.997 193.216C128.632 191.851 127.949 190.204 127.949 188.276C127.949 186.548 128.521 185.007 129.663 183.653C131.069 181.995 132.889 181.166 135.121 181.166C136.34 181.166 137.518 181.497 138.654 182.159ZM144.279 188.698V186.949C145.146 186.949 145.729 186.853 146.028 186.659C146.562 186.319 146.828 185.774 146.828 185.024C146.828 184.444 146.635 183.973 146.248 183.609C145.867 183.24 145.372 183.056 144.763 183.056C144.194 183.056 143.755 183.193 143.444 183.469C143.146 183.75 142.923 184.225 142.776 184.893H140.737C140.948 183.615 141.382 182.681 142.038 182.089C142.694 181.491 143.611 181.192 144.789 181.192C145.979 181.192 146.948 181.544 147.698 182.247C148.448 182.944 148.823 183.844 148.823 184.945C148.823 186.188 148.331 187.154 147.347 187.846C148.472 188.508 149.034 189.583 149.034 191.071C149.034 192.29 148.624 193.286 147.804 194.06C146.983 194.833 145.932 195.22 144.648 195.22C143.014 195.22 141.801 194.619 141.01 193.418C140.682 192.914 140.474 192.217 140.386 191.326H142.363C142.469 191.982 142.724 192.486 143.128 192.838C143.538 193.184 144.071 193.356 144.728 193.356C145.39 193.356 145.938 193.137 146.371 192.697C146.805 192.246 147.021 191.675 147.021 190.983C147.021 190.069 146.696 189.419 146.046 189.032C145.665 188.81 145.076 188.698 144.279 188.698Z" fill="#6619FF"/>
<mask id="mask2" mask-type="alpha" maskUnits="userSpaceOnUse" x="1" y="383" width="160" height="60">
<rect x="1" y="383" width="160" height="60" fill="#FFAA00"/>
</mask>
<g mask="url(#mask2)">
<rect x="1" y="383" width="160" height="60" fill="#F5008F"/>
<circle cx="1" cy="383" r="112" fill="#FF6422"/>
<circle cx="1.5" cy="383.5" r="40.5" fill="#FFB31A"/>
</g>
<path d="M19.6543 358.159V360.585C18.4707 359.595 17.2461 359.1 15.9805 359.1C14.5859 359.1 13.4111 359.601 12.4561 360.603C11.4951 361.599 11.0146 362.817 11.0146 364.259C11.0146 365.683 11.4951 366.884 12.4561 367.862C13.417 368.841 14.5947 369.33 15.9893 369.33C16.71 369.33 17.3223 369.213 17.8262 368.979C18.1074 368.861 18.3975 368.703 18.6963 368.504C19.001 368.305 19.3203 368.064 19.6543 367.783V370.253C18.4824 370.915 17.252 371.246 15.9629 371.246C14.0234 371.246 12.3682 370.569 10.9971 369.216C9.63184 367.851 8.94922 366.204 8.94922 364.276C8.94922 362.548 9.52051 361.007 10.6631 359.653C12.0693 357.995 13.8887 357.166 16.1211 357.166C17.3398 357.166 18.5176 357.497 19.6543 358.159ZM25.499 359.346H23.1523L24.2773 357.43H27.5469V371H25.499V359.346Z" fill="#E89A00"/>
<path d="M79.6543 358.159V360.585C78.4707 359.595 77.2461 359.1 75.9805 359.1C74.5859 359.1 73.4111 359.601 72.4561 360.603C71.4951 361.599 71.0146 362.817 71.0146 364.259C71.0146 365.683 71.4951 366.884 72.4561 367.862C73.417 368.841 74.5947 369.33 75.9893 369.33C76.71 369.33 77.3223 369.213 77.8262 368.979C78.1074 368.861 78.3975 368.703 78.6963 368.504C79.001 368.305 79.3203 368.064 79.6543 367.783V370.253C78.4824 370.915 77.252 371.246 75.9629 371.246C74.0234 371.246 72.3682 370.569 70.9971 369.216C69.6318 367.851 68.9492 366.204 68.9492 364.276C68.9492 362.548 69.5205 361.007 70.6631 359.653C72.0693 357.995 73.8887 357.166 76.1211 357.166C77.3398 357.166 78.5176 357.497 79.6543 358.159ZM85.1299 369.075H90.1836V371H81.0693L85.7803 365.296C86.2432 364.728 86.6299 364.235 86.9404 363.819C87.2568 363.403 87.4971 363.055 87.6611 362.773C87.9951 362.223 88.1621 361.728 88.1621 361.288C88.1621 360.655 87.9395 360.125 87.4941 359.697C87.0488 359.27 86.498 359.056 85.8418 359.056C84.4707 359.056 83.6855 359.867 83.4863 361.49H81.4473C81.7754 358.631 83.2197 357.201 85.7803 357.201C87.0166 357.201 88.0537 357.594 88.8916 358.379C89.7354 359.164 90.1572 360.137 90.1572 361.297C90.1572 362.035 89.9609 362.759 89.5684 363.468C89.3691 363.837 89.0762 364.276 88.6895 364.786C88.3086 365.29 87.8252 365.888 87.2393 366.579L85.1299 369.075Z" fill="#FF6422"/>
<path d="M139.654 358.159V360.585C138.471 359.595 137.246 359.1 135.98 359.1C134.586 359.1 133.411 359.601 132.456 360.603C131.495 361.599 131.015 362.817 131.015 364.259C131.015 365.683 131.495 366.884 132.456 367.862C133.417 368.841 134.595 369.33 135.989 369.33C136.71 369.33 137.322 369.213 137.826 368.979C138.107 368.861 138.397 368.703 138.696 368.504C139.001 368.305 139.32 368.064 139.654 367.783V370.253C138.482 370.915 137.252 371.246 135.963 371.246C134.023 371.246 132.368 370.569 130.997 369.216C129.632 367.851 128.949 366.204 128.949 364.276C128.949 362.548 129.521 361.007 130.663 359.653C132.069 357.995 133.889 357.166 136.121 357.166C137.34 357.166 138.518 357.497 139.654 358.159ZM145.279 364.698V362.949C146.146 362.949 146.729 362.853 147.028 362.659C147.562 362.319 147.828 361.774 147.828 361.024C147.828 360.444 147.635 359.973 147.248 359.609C146.867 359.24 146.372 359.056 145.763 359.056C145.194 359.056 144.755 359.193 144.444 359.469C144.146 359.75 143.923 360.225 143.776 360.893H141.737C141.948 359.615 142.382 358.681 143.038 358.089C143.694 357.491 144.611 357.192 145.789 357.192C146.979 357.192 147.948 357.544 148.698 358.247C149.448 358.944 149.823 359.844 149.823 360.945C149.823 362.188 149.331 363.154 148.347 363.846C149.472 364.508 150.034 365.583 150.034 367.071C150.034 368.29 149.624 369.286 148.804 370.06C147.983 370.833 146.932 371.22 145.648 371.22C144.014 371.22 142.801 370.619 142.01 369.418C141.682 368.914 141.474 368.217 141.386 367.326H143.363C143.469 367.982 143.724 368.486 144.128 368.838C144.538 369.184 145.071 369.356 145.728 369.356C146.39 369.356 146.938 369.137 147.371 368.697C147.805 368.246 148.021 367.675 148.021 366.983C148.021 366.069 147.696 365.419 147.046 365.032C146.665 364.81 146.076 364.698 145.279 364.698Z" fill="#F5008F"/>
<path d="M79.6464 159.354C79.8417 159.549 80.1583 159.549 80.3536 159.354L83.5355 156.172C83.7308 155.976 83.7308 155.66 83.5355 155.464C83.3403 155.269 83.0237 155.269 82.8284 155.464L80 158.293L77.1716 155.464C76.9763 155.269 76.6597 155.269 76.4645 155.464C76.2692 155.66 76.2692 155.976 76.4645 156.172L79.6464 159.354ZM79.5 119L79.5 159L80.5 159L80.5 119L79.5 119Z" fill="black"/>
<path d="M78.6464 335.354C78.8417 335.549 79.1583 335.549 79.3536 335.354L82.5355 332.172C82.7308 331.976 82.7308 331.66 82.5355 331.464C82.3403 331.269 82.0237 331.269 81.8284 331.464L79 334.293L76.1716 331.464C75.9763 331.269 75.6597 331.269 75.4645 331.464C75.2692 331.66 75.2692 331.976 75.4645 332.172L78.6464 335.354ZM78.5 295L78.5 335L79.5 335L79.5 295L78.5 295Z" fill="black"/>
</svg>
